<svg viewBox="0 0 48 48" xmlns="http://www.w3.org/2000/svg" role="img" aria-hidden="true">
  <path fill="#EA4335" d="M24 9.5c3.15 0 5.3 1.37 6.51 2.52l4.77-4.68C31.54 3.5 28.13 2 24 2 15.99 2 9.11 6.64 5.78 13.26l5.64 4.38C12.62 13.24 17.86 9.5 24 9.5z"/>
  <path fill="#4285F4" d="M43.6 24.5c0-1.54-.14-3.03-.4-4.5H24v8.52h11.25c-.48 2.5-1.94 4.62-4.12 6.04l6.23 4.83c3.64-3.36 5.96-8.33 5.96-14.89z"/>
  <path fill="#FBBC05" d="M11.42 28.38c-.63-1.86-.99-3.86-.99-5.88s.36-4.02.99-5.88l-5.64-4.38C3.87 15.07 3 19.15 3 22.5s.87 7.43 2.78 10.26l5.64-4.38z"/>
  <path fill="#34A853" d="M24 42c5.13 0 9.43-1.7 12.57-4.61l-6.23-4.83c-1.7 1.14-3.87 1.88-6.34 1.88-6.14 0-11.38-3.74-13.18-9.01l-5.64 4.38C9.11 37.36 15.99 42 24 42z"/>
</svg>