<svg width="458" height="395" viewBox="0 0 458 395" fill="none" xmlns="http://www.w3.org/2000/svg">
<path d="M154.288 8.00369C154.288 8.24484 154.288 8.48599 154.288 8.72714C150.16 10.5502 146.033 10.5502 141.907 8.72714V8.00369H154.288Z" fill="#F3F6FB"/>
<path d="M141.917 8.71508H154.298C165.404 9.43852 175.51 13.2511 184.987 18.7878C195.767 25.0866 205.426 32.8612 214.441 41.4943C224.228 50.8396 234.153 60.0297 244.217 69.0647C262.098 85.1251 282.774 95.8635 306.353 100.853C319.615 103.66 332.669 101.96 345.733 99.1503C363.457 95.3378 380.608 96.4832 396.241 106.708C407.415 114.015 415.297 124.355 421.852 135.747C429.578 149.191 434.339 163.737 436.312 179.059C437.804 190.68 437.604 202.386 436.577 214.096C435.436 227.149 432.514 239.759 428.081 252.04C426.739 255.759 425.619 259.596 423.424 262.962C421.329 258.689 422.111 254.001 421.63 249.513C421.184 245.327 421.563 241.061 421.522 236.831C421.418 225.98 414.79 218.35 404.032 216.575C399.838 215.925 395.579 215.806 391.354 216.22C377.211 217.467 363.037 216.276 348.906 216.927C331.368 217.732 313.806 216.987 296.297 217.764C282.738 218.364 269.203 218.063 255.661 218.28C251.147 218.352 246.762 219.112 242.383 220.014C241.976 220.033 241.57 219.973 241.187 219.835C240.804 219.697 240.452 219.485 240.152 219.211C238.145 216.396 240.811 213.968 240.876 210.84C238.165 213.083 236.702 212.159 236.023 209.268C235.961 208.908 235.785 208.577 235.522 208.323C235.259 208.069 234.922 207.905 234.56 207.855C231.434 207.344 227.853 211.231 228.49 214.354C228.973 216.724 230.301 218.839 230.497 221.289C230.168 225.017 232.129 228.524 231.603 232.257C231.12 234.511 231.05 236.79 230.994 239.091C230.49 260.008 231.801 280.901 231.822 301.813C231.822 314.42 240.635 322.793 253.153 322.378C259.57 322.166 265.983 322.284 272.398 322.106C284.008 322.055 295.619 321.997 307.227 322.123C311.838 322.173 316.36 320.98 320.969 321.428C321.414 321.443 321.863 321.457 322.307 321.464C327.044 321.435 331.786 321.264 336.52 321.556C340.798 323.003 343.553 326.478 346.684 329.386C348.147 330.746 350.485 331.609 350.574 334.158C347.8 334.134 345.477 335.605 343.036 336.57C330.617 341.441 317.705 344.383 304.583 346.416C291.848 348.389 279.03 349.479 266.147 350.274C251.977 351.15 237.781 351.391 223.696 350.622C192.374 348.909 161.628 343.648 132.675 330.847C117.153 323.987 102.716 315.305 89.6854 304.23C67.1765 285.097 52.1521 261.013 41.64 233.8C40.0779 229.768 38.6704 225.659 37.1807 221.576C39.0712 219.968 41.3527 220.631 43.4459 220.657C56.8962 220.843 54.238 218.834 63.2435 229.054C66.189 232.394 69.2552 235.654 72.2587 238.958C74.0984 240.981 75.5132 241.114 77.6451 239.129C82.5003 234.608 87.5438 230.301 92.416 225.779C95.5063 222.902 98.8067 220.587 103.365 221.27C110.837 221.976 118.307 222.644 125.763 221.111C130.49 221.186 135.229 221.087 139.913 221.94C147.101 221.528 154.254 222.3 161.415 222.555C167.664 221.805 173.893 223.194 180.148 222.743C182.186 222.596 184.253 222.794 186.278 222.437C196.194 220.71 201.971 214.588 203.695 203.936C203.608 198.985 206.675 196.808 210.762 194.732C219.137 190.48 227.295 185.78 235.463 181.119C236.641 180.446 237.67 179.672 238.413 178.529C240.309 176.969 242.856 176.674 244.823 175.218C246.83 173.735 247.016 171.256 245.289 167.429C244.271 165.164 242.721 165.391 240.816 166.312C237.795 167.776 238.375 164.81 237.515 163.267C235.499 165.321 235.065 168.406 232.573 169.874C224.869 173.096 217.092 176.127 209.33 179.194C207.739 179.821 205.926 180.996 204.521 178.744C203.652 169.324 203.797 159.893 204.429 150.486C204.784 145.147 205.009 139.875 204.06 134.57C203.301 130.309 201.114 126.431 197.859 123.574C194.605 120.716 190.474 119.048 186.145 118.842C173.56 118.307 160.968 118.041 148.368 118.044C126.927 118.027 105.482 117.603 84.0527 117.152C65.2708 116.76 46.4993 116.679 27.7383 116.911C26.9995 116.911 26.2897 116.86 25.6595 116.409C25.4326 106.672 28.4432 97.5853 31.8185 88.7062C39.1122 69.4891 50.8531 53.1538 66.317 39.7002C84.8518 23.5746 106.431 13.5043 130.753 9.60491C134.401 9.02134 138.141 8.29307 141.917 8.71508Z" fill="#B6E9FF"/>
<path d="M102.638 222.259C99.4152 221.776 96.9261 222.931 94.5455 225.169C88.826 230.552 82.8167 235.628 77.073 240.984C75.3226 242.616 74.3399 242.568 72.7706 240.801C67.6305 235.013 62.3117 229.401 57.1064 223.679C55.9185 222.372 54.7307 221.473 52.7944 221.509C47.5939 221.632 42.391 221.562 37.1881 221.567C33.9432 221.246 30.6283 221.246 27.468 220.544C18.4939 218.547 11.7434 210.44 11.7868 201.178C11.8882 179.402 12.2093 157.626 12.6391 135.853C12.8202 126.752 17.7865 120.53 25.6524 116.397C31.6037 114.736 37.6927 115.401 43.7213 115.457C70.4939 115.698 97.2737 115.794 124.037 116.486C140.268 116.908 156.497 116.747 172.722 117.125C176.469 117.212 180.206 117.526 183.958 117.584C197.109 117.786 205.805 126.345 205.772 139.514C205.738 152.815 205.395 166.117 205.187 179.421C202.913 183.161 192.005 186.359 188.215 184.244C183.463 181.591 178.743 178.895 174.006 176.221C166.751 172.122 159.682 167.704 151.35 165.852C148.815 165.29 147.176 165.625 145.797 167.764C145.073 168.878 144.25 169.934 143.508 171.027C141.92 173.385 139.909 174.14 137.284 172.761C136.956 172.571 136.687 172.294 136.507 171.96C136.349 171.496 136.314 170.999 136.405 170.518C136.496 170.037 136.711 169.587 137.028 169.213C140.338 165.278 141.755 160.317 144.249 155.936C147.7 149.873 147.704 143.256 145.355 136.68C145.423 134.992 146.949 135.105 147.968 134.638C149.802 133.796 150.464 132.453 149.926 130.519C149.571 129.238 149.23 127.948 148.793 126.694C147.929 124.215 146.263 122.867 143.537 123.337C141.666 123.661 139.896 123.494 138.279 122.508C133.829 119.797 129.669 121.085 125.599 123.39C123.264 124.712 121.509 126.779 119.476 128.484C117.786 129.911 118.039 131.978 118.679 133.888C119.645 136.755 120.821 139.54 121.912 142.362C121.625 145.014 122.257 147.136 124.372 149.094C126.321 150.898 127.323 153.734 127.339 156.278C127.371 160.641 129.17 164.14 131.26 167.675C131.985 168.893 132.938 170.06 132.89 171.615C132.823 171.987 132.641 172.329 132.369 172.592C128.711 174.256 127.492 173.986 125.273 171.017C125.128 170.824 124.995 170.624 124.858 170.424C119.343 162.29 121.477 163.754 112.062 165.29C107.351 166.083 103.104 168.08 99.7122 171.697C92.7565 179.098 85.2262 185.925 77.8021 192.839C74.8035 195.631 72.732 198.882 71.3003 202.704C69.4678 207.57 67.8285 212.497 66.1215 217.414C65.3827 219.534 65.8004 220.655 68.2534 220.636C70.7957 220.614 73.2728 221.299 75.8272 221.391C78.6181 221.492 80.5351 220.667 81.3077 217.836C81.4357 217.373 81.3318 217.961 81.4284 217.496C83.5796 207.086 91.5686 201.464 99.3718 195.708C102.006 193.765 103.392 194.213 103.476 197.155C103.718 204.872 103.677 212.615 103.495 220.346C103.468 221.07 103.161 221.756 102.638 222.259Z" fill="#046D91"/>
<path d="M241.608 219.444C246.052 217.633 250.719 217.346 255.451 217.296C282.562 217.004 309.682 216.946 336.783 216.242C352.88 215.825 368.976 216.049 385.07 215.576C391.83 215.379 398.566 214.646 405.326 215.634C414.742 217.011 422.314 225.218 422.659 234.712C422.999 244.116 423.18 253.548 423.431 262.964C423.487 274.817 423.405 286.669 423.649 298.517C423.803 306.021 421.498 312.231 415.558 316.979C412.43 319.506 408.562 320.945 404.542 321.079C397.651 321.37 390.756 321.636 383.86 321.631C381.205 321.631 379.355 322.439 377.607 324.421C372.808 329.866 367.75 335.084 362.94 340.52C361.296 342.379 360.222 343.083 358.186 340.886C355.9 338.42 353.138 336.391 350.584 334.173L337.57 322.518C336.484 320.514 338.167 319.359 339.074 318.096C342.742 312.998 346.709 308.119 350.118 302.831C354.374 296.236 353.903 292.961 347.776 287.945C340.018 281.595 332.309 275.186 324.494 268.894C320.39 265.583 315.561 264.221 310.491 263.379C308.514 263.051 307.352 264.255 306.305 265.677C305.257 267.1 304.426 268.832 302.925 269.89C300.964 271.265 299.115 271.578 298.045 268.776C297.978 268.294 297.939 267.758 298.192 267.358C300.783 263.275 302.171 258.595 304.641 254.459C305.506 253.012 306.36 251.587 308.086 250.89C309.813 250.193 309.663 248.324 310.151 246.88C310.998 244.854 312.435 243.181 313.531 241.309C314.902 238.992 315.102 236.894 313.072 234.716C311.358 232.879 310.206 230.576 307.872 229.252C305.537 227.928 303.226 227.234 300.587 227.779C299.173 228.112 297.715 228.222 296.266 228.104C292.161 227.663 289.989 229.218 288.74 233.021C287.982 235.329 290.109 236.173 290.725 237.767C290.966 240.265 289.856 242.501 289.276 244.816C287.552 251.594 289.846 257.623 292.49 263.611C293.118 265.029 294.293 266.217 294.216 267.918C292.47 270.623 290.353 271.149 289.081 268.578C286.275 262.948 282.111 263.061 277.34 264.889C272.241 266.844 268.016 265.564 263.882 262.323C259.778 259.118 255.577 256.053 251.381 252.983C249.539 251.633 248.447 249.868 247.822 247.678C245.56 239.773 243.554 231.803 241.369 223.879C240.951 222.427 240.253 220.85 241.608 219.444Z" fill="#046D91"/>
<path d="M193.198 360.998H220.823C244.394 360.998 267.965 360.822 291.531 361.097C303.131 361.232 314.734 361.489 326.339 361.866C338.517 362.247 350.692 362.889 362.877 363.279C374.556 363.653 386.241 364.333 397.868 365.45C411.983 366.812 426.222 367.273 440.119 370.49C442.466 371.032 446.201 371.199 446.22 373.827C446.237 376.106 442.526 376.42 440.257 376.921C430.962 378.983 421.498 379.858 412.009 380.628C400.855 381.534 389.71 382.557 378.554 383.437C373.385 383.845 368.172 383.9 363.01 384.035C354.319 384.262 345.627 384.773 336.935 385.103C325.689 385.528 314.422 385.132 303.219 385.827C286.152 386.897 269.097 386.041 252.035 386.418C246.364 386.543 240.635 387.141 235.043 386.948C210.834 386.167 186.619 386.931 162.429 386.225C153.979 385.984 145.507 386.14 137.067 385.658C124.046 384.915 111.011 384.662 97.9883 384.112C89.444 383.75 80.8658 383.478 72.3601 382.677C62.9031 381.788 53.4196 381.175 43.9747 380.061C35.7225 379.096 27.4437 378.498 19.3895 376.311C18.9235 376.186 18.3996 376.222 17.9747 376.024C16.7989 375.484 15.1089 375.156 15.1644 373.613C15.2103 372.327 16.7072 371.751 17.8467 371.474C21.5866 370.56 25.3312 369.544 29.1386 369.048C42.3837 367.278 55.6963 366.113 69.0235 365.245C77.0825 364.719 85.1344 364.215 93.2031 363.82C105.866 363.197 118.532 362.78 131.193 362.255C137.47 361.992 143.747 362.04 150.025 361.717C164.416 360.974 178.801 360.875 193.198 360.998Z" fill="#B6E9FF"/>
<path d="M298.345 268.542C299.767 270.696 301.305 270.765 302.954 268.783C303.281 268.43 303.586 268.057 303.869 267.667C308.33 260.782 307.217 261.744 315.94 263.611C322.145 264.937 326.46 269.316 331.151 273.032C337.462 278.046 343.597 283.283 349.741 288.487C354.623 292.618 355.277 296.727 351.648 302.076C347.938 307.55 343.923 312.829 340.077 318.204C339.111 319.554 337.802 320.717 337.568 322.499L322.266 322.448C322.025 320.635 322.925 319.195 323.816 317.753C326.858 312.824 329.531 307.683 332.541 302.739C333.975 300.381 333.881 298.567 331.433 296.918C328.847 295.177 326.416 293.204 323.323 290.747C323.49 295.437 322.553 299.375 322.534 303.41C322.512 308.353 322.534 313.297 322.522 318.24C322.522 319.687 322.411 321.134 321.626 322.427C305.102 323.702 288.55 323.186 272.012 323.133C270.283 322.207 270.404 320.521 270.457 318.988C270.698 311.734 270.022 304.519 269.711 297.284C269.629 295.389 269.122 293.807 267.84 292.348C262.25 286.001 256.313 279.977 250.575 273.78C247.294 270.23 244.181 266.531 240.835 263.044C237.705 259.805 235.633 255.694 234.893 251.254C233.739 244.731 231.441 238.447 230.748 231.823C230.878 229.37 230.347 227 229.64 224.701C229.222 223.341 229.022 222.124 229.954 220.935C232.967 219.194 236.425 218.371 239.901 218.569L241.613 219.44C242.124 225.244 244.474 230.605 245.661 236.248C246.144 238.604 246.946 240.895 247.458 243.241C248.518 248.117 250.623 252.036 255.217 254.727C259.672 257.336 263.699 260.681 267.852 263.784C269.658 265.132 271.492 265.472 273.632 264.79C275.119 264.308 276.77 264.252 278.185 263.654C283.46 261.435 287.241 262.472 289.646 268.016C290.677 270.389 292.408 269.914 293.736 267.922L294.219 268.284C294.899 269.42 294.573 270.621 294.46 271.819C293.328 284.328 292.69 296.879 291.399 309.376C291.022 313.012 293.357 315.163 295.474 317.481C296.297 318.38 297.244 318.204 297.961 317.295C299.878 314.9 301.471 312.568 300.484 309.096C296.947 296.602 297.053 283.775 297.328 270.934C297.351 270.45 297.442 269.971 297.599 269.512C297.744 269.121 298.004 268.783 298.345 268.542Z" fill="#A5B2E9"/>
<path d="M137.448 172.264C140.169 173.32 141.751 172.264 143.281 169.852C147.077 163.865 147.19 164.038 154.001 165.669C161.662 167.504 168.026 171.955 174.764 175.645C179.627 178.297 184.402 181.116 189.25 183.805C190.262 184.365 191.254 185.235 192.602 184.678C196.802 182.942 201.255 181.806 205.185 179.431C211.276 178.039 216.735 174.958 222.595 172.949C225.975 171.791 229.048 169.833 232.653 169.332C235.091 172.201 237.977 174.779 238.727 178.736C239.319 179.891 238.727 180.405 237.733 180.945C229.005 185.744 220.35 190.673 211.576 195.38C208.123 197.232 204.256 198.477 204.574 203.478C203.367 202.653 203.765 201.341 203.621 200.261C198.278 203.818 192.826 206.049 186.078 204.308C180.38 202.841 174.511 201.94 168.678 200.994C165.298 200.447 164.759 200.777 164.798 204.182C164.854 209.005 163.757 213.756 163.948 218.586C164.016 220.305 163.446 221.907 162.471 223.344C156.193 224.323 149.976 222.379 143.704 222.982C142.386 223.112 141.048 223.004 139.713 223.004C137.661 218.465 138.209 213.541 137.994 208.827C137.53 198.727 137.224 188.623 136.504 178.536C136.369 176.419 135.964 174.179 137.448 172.264Z" fill="#A5B2E9"/>
<path d="M102.638 222.259C102.653 213.907 102.661 205.556 102.662 197.206C102.662 196.545 103.044 195.638 102.209 195.277C101.484 194.966 100.842 195.559 100.277 196C96.4142 199.096 92.6164 202.258 88.7124 205.294C85.2889 207.947 84.6926 212.089 83.186 215.695C80.2357 222.758 79.3231 223.411 71.701 222.001C70.76 221.796 69.8055 221.659 68.8448 221.591C63.8109 221.393 63.8061 221.407 65.4648 216.423C66.6116 212.986 67.9395 209.601 68.8955 206.111C71.3606 197.102 77.662 191.112 84.4873 185.349C88.5773 181.92 92.3774 178.161 95.8492 174.109C101.255 167.74 108.095 164.704 116.159 163.368C119.676 162.78 121.924 163.259 123.455 166.503C123.964 167.588 124.874 168.485 125.372 169.573C126.878 172.876 129.235 173.578 132.434 172.131C133.653 173.245 133.617 174.76 133.508 176.168C132.455 189.694 132.12 203.316 128.457 216.517C127.953 218.338 127.745 220.356 125.867 221.48C125.024 222.984 123.626 223.018 122.124 222.999C115.62 222.936 109.106 223.233 102.638 222.259Z" fill="#A5B2E9"/>
<path d="M230.743 231.825C233.372 237.926 234.365 244.466 235.741 250.89C236.706 255.371 238.503 259.27 241.637 262.62C247.812 269.215 253.916 275.883 260.056 282.507C263.168 285.866 266.239 289.259 269.433 292.541C270.592 293.73 270.616 295.056 270.691 296.518C271.094 304.454 271.591 312.385 271.449 320.338C271.432 321.269 271.811 322.207 272.007 323.143C264.657 323.201 257.279 323.647 249.964 323.227C238.896 322.593 230.953 314.174 230.736 303.048C230.316 281.571 230.149 260.087 229.85 238.606C229.818 236.289 230.246 234.058 230.743 231.825Z" fill="#046D91"/>
<path d="M255.348 180.149C254.179 179.718 253.46 178.589 253.539 177.644C254.022 171.832 250.555 167.106 249.377 161.762C247.989 155.461 250.681 148.299 256.137 144.303C261.69 140.225 269.551 139.798 275.126 143.256C275.821 143.688 276.555 144.062 277.27 144.462C278.03 146.348 280.071 147.329 280.71 149.304C284.622 157.262 283.682 164.979 277.205 170.737C273.368 174.154 270.413 178.162 267.214 182.042C263.544 182.901 262.656 182.163 263.395 178.64C264.085 175.334 265 172.076 266 168.844C266.497 167.234 267.304 166.076 268.866 165.348C269.86 164.885 271.28 164.646 271.152 162.965C269.737 162.596 269.247 163.804 268.496 164.46C265.778 166.814 263.095 166.346 261.495 163.187C261.277 162.755 261.14 162.285 260.925 161.854C260.601 161.202 260.123 160.342 259.353 160.833C258.274 161.518 259.044 162.415 259.686 162.881C262.417 164.863 262.289 167.513 261.717 170.383C261.248 172.744 261.234 175.172 260.751 177.545C259.95 181.432 259.073 181.895 255.348 180.149Z" fill="#A5B2E9"/>
<path d="M162.485 223.344C162.912 216.141 163.371 208.938 163.752 201.732C163.863 199.651 164.549 199.123 166.727 199.586C173.084 200.936 179.561 201.739 185.88 203.227C190.87 204.402 195.404 204.127 199.789 201.409C201.097 200.599 202.582 200.073 204.246 199.294C204.376 200.9 204.487 202.188 204.589 203.478C203.864 215.256 195.223 223.558 183.388 223.626C176.42 223.667 169.453 223.447 162.485 223.344Z" fill="#6F87D1"/>
<path d="M125.864 221.497C128.945 212.473 130.324 203.14 131.094 193.675C131.68 186.506 132.451 179.354 132.431 172.148L132.656 171.984C133.991 171.058 135.333 171.058 136.68 171.96L137.448 172.264C137.996 184.982 138.414 197.71 139.16 210.418C139.401 214.612 139.752 218.798 139.727 223.004C135.203 221.68 130.357 223.158 125.864 221.497Z" fill="#FEFEFE"/>
<path d="M321.621 322.436C321.38 311.585 321.469 300.716 322.568 289.418C325.412 290.542 327.363 292.833 329.678 294.533C335.806 299.035 335.74 299.04 331.964 305.491C328.674 311.114 325.492 316.801 322.261 322.458L321.94 322.48L321.621 322.436Z" fill="#6F87D1"/>
<path d="M238.73 178.736C236.75 175.575 234 172.908 232.658 169.332C233.778 167.475 235.099 165.738 235.82 163.643C236.154 162.678 236.576 161.33 238.032 161.928C239.239 162.411 239.314 163.522 238.826 164.699C238.667 165.083 238.8 165.584 238.8 166.115C245.14 163.735 244.983 163.788 247.156 170.214C248.235 173.409 247.52 175.278 244.44 176.431C242.52 177.159 240.632 177.967 238.73 178.736Z" fill="#FDB582"/>
<path d="M239.896 218.571C236.68 219.777 233.392 220.677 229.949 220.937C228.688 218.709 228.16 216.232 227.416 213.816C226.673 211.4 226.912 209.883 229.492 208.829C234.954 206.603 235.647 204.467 238.008 211.629C238.8 211.696 238.863 210.942 239.215 210.532C239.85 209.789 240.48 208.824 241.581 209.466C242.682 210.107 242.259 211.127 241.839 212.029C240.866 214.115 240.019 216.235 239.896 218.571Z" fill="#FDB582"/>
<path d="M255.348 180.149C258.218 180.721 260.092 180.417 259.962 176.624C259.867 173.921 260.78 171.191 261.13 168.459C261.372 166.633 261.396 164.868 259.278 163.838C258.02 163.226 257.299 162.037 257.687 160.52C257.929 159.606 258.588 159.008 259.554 159.194C261.038 159.478 261.57 160.667 262.06 161.979C263.474 165.76 265.44 166.078 268.385 163.146C269.286 162.251 270.061 160.92 271.695 161.509C271.988 161.601 272.245 161.782 272.431 162.027C272.617 162.271 272.722 162.567 272.733 162.874C272.77 164.477 271.647 165.435 270.37 165.695C267.777 166.228 267.002 167.935 266.507 170.212C265.865 173.142 265.022 176.035 264.155 178.912C263.267 181.862 264.554 182.334 267.036 181.625C267.794 181.584 268.528 181.625 269.044 182.298C268.658 183.135 267.837 182.995 267.142 183.13C264.727 184.931 257.055 184.336 255.256 182.165C254.928 181.772 255.082 181.266 255.338 180.834C255.376 180.608 255.38 180.377 255.348 180.149Z" fill="#748AD3"/>
<path d="M269.039 182.308C268.291 182.322 267.509 182.433 267.031 181.635C269.204 177.581 271.888 174.099 275.565 171.123C282.958 165.133 283.513 157.366 280.066 148.976C279.742 148.207 280.126 148.091 280.768 148.221C286.053 155.347 285.708 164.62 279.221 170.836C275.476 174.405 271.688 177.805 269.039 182.308Z" fill="#7189D2"/>
<path d="M255.333 180.844C255.444 181.184 255.48 181.768 255.678 181.828C259.413 182.961 263.163 184.111 267.137 183.13C267.328 184.191 270.092 185.935 266.386 185.966C263.622 187.08 261.074 185.575 258.783 185.556C260.925 186.451 263.972 185.556 266.287 187.41C266.83 187.533 267.593 187.57 267.453 188.334C267.212 189.684 265.973 189.508 264.995 189.672C261.391 190.003 257.866 189.803 254.553 188.143C252.482 186.6 252.781 183.755 255.333 180.844Z" fill="#A5B2E9"/>
<path d="M254.553 188.143C258.127 188.028 261.623 188.428 264.995 189.672C261.111 193.938 257.057 193.345 254.553 188.143Z" fill="#7189D2"/>
<path d="M266.287 187.41L255.089 185.722C258.952 183.875 262.62 186.082 266.386 185.978C266.352 186.448 266.318 186.928 266.287 187.41Z" fill="#778ED5"/>
<path d="M280.768 148.212L280.066 148.967C279.383 147.31 276.946 146.741 277.265 144.462C278.615 145.557 279.998 146.594 280.768 148.212Z" fill="#788FD5"/>
<path d="M295.793 166.886C294.344 167.074 293.378 167.255 292.98 165.958C294.098 165.357 294.791 166.03 295.793 166.886Z" fill="#C8D1F1"/>
<path d="M237.358 152.941C238.904 152.405 239.734 152.458 240.775 153.182C239.517 154.187 238.764 153.163 237.358 152.941Z" fill="#CAD3F2"/>
<path d="M285.957 139.473C285.327 140.605 284.386 141.534 283.245 142.149C283.318 140.608 284.257 140.037 285.177 139.456C285.447 139.166 285.706 139.157 285.957 139.473Z" fill="#B9C4EE"/>
<path d="M272.062 134.92C272.861 136.485 272.137 137.201 271.765 138.327C271.188 137.109 271.307 136.273 272.062 134.92Z" fill="#C3CDF0"/>
<path d="M259.633 136.945C258.716 135.708 258.426 134.7 258.31 133.249C259.708 134.343 259.783 135.414 259.633 136.945Z" fill="#BAC5EE"/>
<path d="M273.185 130.131C273.668 131.686 273.752 132.619 272.702 133.625C272.096 132.243 272.885 131.512 273.185 130.131Z" fill="#C3CDF0"/>
<path d="M291.382 151.86C290.138 153.43 289.484 153.478 288.748 152.929L291.382 151.86Z" fill="#C8D1F1"/>
<path d="M285.957 139.473L285.184 139.456C285.568 138.713 286.046 138.064 286.995 137.686C287.357 138.744 286.638 139.096 285.957 139.473Z" fill="#C8D1F1"/>
<path d="M136.681 171.96L132.653 171.984C131.396 169.79 130.239 167.537 128.853 165.423C127.359 163.129 126.886 160.703 126.586 157.986C126.197 154.477 125.92 150.717 122.166 148.426C119.973 147.095 120.275 144.747 121.364 142.612C124.92 140.719 127.448 138.091 127.629 133.81C127.716 131.778 129.039 131.182 130.558 131.881C135.517 134.189 140.951 134.691 146.096 136.258C149.11 141.988 147.383 152.994 144.252 158.292C141.63 162.748 139.196 167.398 136.681 171.96Z" fill="#FDB482"/>
<path d="M146.104 136.268C139.921 136.564 134.293 134.394 128.238 131.915C128.721 134.958 128.827 137.43 126.516 139.509C124.037 141.742 123.544 142.34 121.364 142.612C119.498 139.745 118.508 136.487 117.501 133.282C116.63 130.512 117.574 128.505 120.205 126.583C123.506 124.172 126.403 121.338 130.565 120.357C132.277 119.952 133.873 119.858 135.543 120.424C138.636 121.476 141.42 123.622 145.145 122.25C146.459 121.768 148.25 123.002 148.88 124.599C149.81 126.945 150.942 129.347 151.172 131.799C151.488 135.089 148.649 135.718 146.104 136.268Z" fill="#222824"/>
<path d="M310.552 247.203C310.887 249.704 310.469 251.271 307.524 252.327C305.788 252.947 304.11 255.646 303.704 257.669C302.859 261.87 300.056 264.903 298.345 268.545L298.13 268.595C296.7 268.836 295.421 268.033 294.025 267.997L293.726 267.93C290.732 263.953 289.639 259.174 288.245 254.558C286.478 248.698 288.61 243.224 290.387 237.738C295.109 236.86 299.931 237.721 304.675 236.92C306.095 236.679 306.848 237.793 306.73 239.238C306.457 242.645 307.876 245.216 310.552 247.203Z" fill="#FDB482"/>
<path d="M310.552 247.203C308.495 246.933 307.302 246.26 306.51 243.853C305.786 241.664 305.593 239.824 306.476 237.444C300.882 238.242 295.636 239.228 290.392 237.738C288.422 236.629 286.512 235.529 287.806 232.7C290.348 227.154 291.91 225.895 295.479 227.036C296.842 227.52 298.328 227.54 299.704 227.094C304.533 225.548 308.186 227.776 311.387 231.005C312.717 232.346 313.507 234.128 314.943 235.483C316.5 236.949 315.829 238.946 314.914 240.547C313.594 242.836 312.017 244.989 310.552 247.203Z" fill="#222824"/>
<path d="M294.03 267.997C295.67 266.348 296.903 267.452 298.135 268.595C298.316 279.447 297.835 290.327 299.769 301.087C300.216 303.574 300.3 306.272 301.382 308.469C303.895 313.579 299.632 316.171 297.722 319.612C296.966 320.977 296.092 319.817 295.45 319.154C291.939 315.537 289.776 311.939 290.686 306.132C292.268 296.047 292.42 285.741 293.212 275.531C293.405 273.015 293.753 270.507 294.03 267.997Z" fill="#FEFEFE"/>
<path d="M265.717 167.75C264.643 171.924 263.581 176.103 262.477 180.272C262.32 180.866 261.893 181.377 261.162 181.213C260.572 181.08 260.498 180.538 260.635 180.072C261.842 176.021 261.685 171.784 262.349 167.658C262.572 166.274 263.238 165.919 264.58 166.281C265.459 166.52 266.27 166.58 265.717 167.75Z" fill="#A4B1E8"/>
<path d="M260.901 163.334C259.211 162.811 258.682 161.923 258.815 160.619C258.867 160.521 258.943 160.438 259.036 160.377C259.129 160.316 259.235 160.279 259.346 160.269C260.625 160.725 260.886 161.767 260.901 163.334Z" fill="#9AA9E4"/>
<path d="M268.793 164.653C269.344 163.448 270 162.823 271.087 162.78C271.261 162.929 271.589 163.132 271.57 163.202C271.13 164.318 270.406 164.984 268.793 164.653Z" fill="#A0AEE7"/>
</svg>
